<?xml version="1.0" encoding="utf-8"?>
<!-- Generator: Adobe Illustrator 16.0.0, SVG Export Plug-In . SVG Version: 6.00 Build 0)  -->
<!DOCTYPE svg PUBLIC "-//W3C//DTD SVG 1.1//EN" "http://www.w3.org/Graphics/SVG/1.1/DTD/svg11.dtd">
<svg version="1.1" id="Capa_1" xmlns="http://www.w3.org/2000/svg" xmlns:xlink="http://www.w3.org/1999/xlink" x="0px" y="0px"
	 width="180px" height="64px" viewBox="0 0 180 64" enable-background="new 0 0 180 64" xml:space="preserve">
<path opacity="0.3" d="M176,44c0,5.521-4.229,10-9.75,10L14.125,64C8.602,64,4,59.521,4,54V17C4,11.477,8.727,7,14.25,7l151.875,10
	c5.521,0,9.875,4.477,9.875,10V44z"/>
<path fill="#2F4F4F" d="M176,40.5c0,5.521-4.229,10-9.75,10l-152.125,10C8.602,60.5,4,56.021,4,50.5v-37c0-5.523,4.727-10,10.25-10
	l151.875,10c5.521,0,9.875,4.477,9.875,10V40.5z"/>
<g id="Capa_2" display="none">
	<rect x="23.189" y="20.245" display="inline" fill="none" width="131.935" height="35.755"/>
	<text transform="matrix(1 0 0 1 23.189 40.6602)" display="inline" fill="#FFFFFF" font-family="'TF2Build'" font-size="29">Con</text>
	<text transform="matrix(1 0 0 1 83.9502 40.6602)" display="inline" fill="#FFFFFF" font-family="'TF2Build'" font-size="29">-</text>
</g>
<g display="none">
	<path display="inline" fill="#FFFFFF" d="M43.317,36.236l7.19-18.065l4.878-0.145l0.416,24.606l-5.817,0.072l-0.072-13.351
		L44.058,43.48l-2.62-0.289l-5.655-12.356l0.397,12.466h-6.576l-0.343-25.835h5.546L43.317,36.236z"/>
	<path display="inline" fill="#FFFFFF" d="M74.445,35.967h-8.04l-2.475,7.371l-6.287-1.734l9.467-24.172l5.221,0.343l9.81,23.451
		l-4.896,1.789L74.445,35.967z M73.036,32.823l-3.144-7.354l-2.439,7.354H73.036z"/>
	<path display="inline" fill="#FFFFFF" d="M103.479,24.585c0,0.53-0.01,1.042-0.026,1.536c-0.019,0.494-0.082,0.97-0.188,1.427
		c-0.109,0.458-0.283,0.91-0.523,1.355c-0.242,0.446-0.586,0.892-1.031,1.337c-0.409,0.482-0.909,0.885-1.499,1.21
		c-0.591,0.325-1.22,0.593-1.888,0.804s-1.364,0.374-2.088,0.488c-0.723,0.113-1.418,0.197-2.086,0.253
		c-0.668,0.054-1.299,0.084-1.889,0.09c-0.591,0.007-1.091,0.009-1.5,0.009v9.883l-6.739,0.361l-0.705-25.835l7.064-0.361
		c0.445,0,0.933,0.003,1.464,0.009c0.529,0.006,1.104,0.034,1.725,0.082c0.621,0.048,1.285,0.124,1.996,0.226
		s1.465,0.244,2.26,0.424c0.795,0.18,1.535,0.482,2.222,0.903c0.688,0.422,1.285,0.93,1.8,1.527c0.512,0.596,0.911,1.258,1.2,1.987
		C103.334,23.028,103.479,23.79,103.479,24.585z M90.523,29.427c0.146,0,0.425,0.012,0.842,0.036
		c0.414,0.024,0.887,0.03,1.418,0.018c0.529-0.012,1.084-0.066,1.662-0.163c0.578-0.096,1.099-0.271,1.563-0.524
		c0.463-0.253,0.834-0.605,1.111-1.057c0.275-0.451,0.385-1.039,0.324-1.761c-0.062-0.698-0.262-1.274-0.605-1.725
		c-0.342-0.452-0.814-0.798-1.418-1.039c-0.602-0.241-1.328-0.391-2.176-0.452c-0.85-0.06-1.805-0.048-2.864,0.036L90.523,29.427z"
		/>
	<path display="inline" fill="#FFFFFF" d="M108.645,36.003c1.435,1.253,2.681,2.06,3.74,2.421c1.059,0.361,1.945,0.26,2.654-0.307
		c0.289-0.289,0.369-0.615,0.236-0.977c-0.133-0.363-0.398-0.74-0.795-1.139c-0.398-0.396-0.89-0.804-1.474-1.22
		c-0.584-0.415-1.174-0.824-1.771-1.229c-0.596-0.402-1.158-0.792-1.689-1.165c-0.529-0.373-0.945-0.71-1.246-1.012
		c-0.061-0.048-0.205-0.168-0.434-0.361c-0.229-0.192-0.49-0.452-0.785-0.777c-0.295-0.325-0.6-0.71-0.912-1.156
		c-0.314-0.445-0.578-0.949-0.795-1.508c-0.217-0.561-0.361-1.175-0.434-1.843c-0.072-0.669-0.025-1.388,0.145-2.159
		c0.277-0.976,0.736-1.854,1.381-2.638c0.645-0.783,1.422-1.448,2.332-1.996c0.908-0.548,1.926-0.973,3.053-1.274
		c1.125-0.301,2.303-0.452,3.531-0.452c1.049,0,2.023,0.048,2.928,0.145c0.902,0.097,1.754,0.256,2.558,0.479
		c0.801,0.223,1.567,0.515,2.303,0.876c0.735,0.361,1.451,0.813,2.149,1.355l-3.541,6.034c-0.53-0.542-1.137-1.023-1.815-1.445
		c-0.68-0.421-1.379-0.762-2.096-1.021c-0.718-0.259-1.423-0.418-2.113-0.479c-0.692-0.06-1.317-0.003-1.879,0.171
		c-0.562,0.175-1.022,0.488-1.392,0.939c-0.368,0.452-0.575,1.063-0.625,1.834c0,0.663,0.14,1.25,0.416,1.762
		c0.277,0.512,0.64,0.984,1.084,1.418c0.445,0.434,0.951,0.843,1.519,1.229c0.565,0.386,1.142,0.777,1.728,1.174
		c0.584,0.397,1.146,0.822,1.688,1.274c0.543,0.451,1.016,0.961,1.42,1.525c0.402,0.566,0.709,1.205,0.92,1.916
		s0.275,1.528,0.189,2.457c-0.084,0.892-0.336,1.646-0.758,2.268s-0.945,1.117-1.572,1.49c-0.625,0.373-1.328,0.633-2.104,0.777
		c-0.777,0.145-1.57,0.187-2.378,0.125c-0.493-0.035-0.979-0.103-1.463-0.197c-0.481-0.098-0.95-0.217-1.409-0.361
		c-0.457-0.145-0.896-0.302-1.318-0.471c-0.422-0.168-0.813-0.338-1.174-0.506c-0.855-0.396-1.668-0.85-2.439-1.354
		c0.459-0.854,0.867-1.62,1.229-2.294c0.156-0.289,0.308-0.572,0.451-0.85c0.145-0.278,0.275-0.523,0.389-0.74
		c0.115-0.217,0.205-0.393,0.271-0.524S108.645,36.016,108.645,36.003z"/>
</g>
<g>
	<path fill="#E2E1D0" d="M45.991,35.967h-8.04l-2.475,7.371l-6.287-1.734l9.467-24.172l5.221,0.343l9.81,23.451l-4.896,1.789
		L45.991,35.967z M44.582,32.823l-3.144-7.354l-2.439,7.354H44.582z"/>
	<path fill="#E2E1D0" d="M74.698,24.314c0.108,0.53,0.138,1.114,0.09,1.752c-0.048,0.639-0.181,1.271-0.397,1.897
		c-0.217,0.626-0.518,1.223-0.903,1.789c-0.386,0.566-0.855,1.036-1.409,1.409c-0.301,0.205-0.593,0.376-0.876,0.515
		c-0.283,0.139-0.569,0.259-0.858,0.361c-0.289,0.103-0.59,0.196-0.903,0.28s-0.645,0.169-0.994,0.253
		c0.891,0.518,1.608,1.061,2.15,1.625c0.542,0.566,0.921,1.26,1.138,2.078c0.108,0.36,0.163,0.752,0.163,1.175
		c0,0.422-0.048,0.847-0.145,1.272c-0.097,0.428-0.247,0.844-0.452,1.247c-0.205,0.403-0.464,0.763-0.777,1.074
		c-0.53,0.53-1.171,0.946-1.924,1.247c-0.752,0.301-1.533,0.527-2.339,0.678c-0.807,0.15-1.59,0.247-2.349,0.289
		c-0.759,0.042-1.403,0.069-1.933,0.081h-6.703l-0.705-25.708l7.064-0.379c0.434,0,0.9,0.003,1.4,0.009
		c0.5,0.006,1.042,0.034,1.626,0.082c0.584,0.048,1.213,0.126,1.888,0.235c0.674,0.108,1.403,0.259,2.186,0.452
		c0.771,0.193,1.5,0.488,2.186,0.885s1.294,0.874,1.825,1.427c0.53,0.554,0.963,1.168,1.301,1.843
		C74.385,22.857,74.602,23.567,74.698,24.314z M61.564,29.915c0.132,0,0.397,0.018,0.795,0.054c0.398,0.036,0.852,0.045,1.364,0.027
		c0.512-0.019,1.045-0.079,1.599-0.181c0.554-0.103,1.057-0.283,1.508-0.542c0.452-0.259,0.81-0.611,1.075-1.057
		c0.265-0.445,0.373-1.03,0.325-1.752c-0.061-0.662-0.265-1.198-0.614-1.608c-0.35-0.409-0.822-0.716-1.418-0.921
		c-0.597-0.205-1.295-0.325-2.096-0.361c-0.801-0.036-1.684-0.012-2.647,0.072L61.564,29.915z M61.907,39.525
		c0.181,0.013,0.442,0.026,0.786,0.045c0.343,0.019,0.716,0.016,1.12-0.008c0.403-0.024,0.813-0.072,1.229-0.146
		c0.415-0.071,0.783-0.199,1.102-0.38c0.319-0.182,0.572-0.418,0.759-0.714s0.256-0.671,0.208-1.13
		c-0.072-0.649-0.298-1.135-0.678-1.453c-0.379-0.319-0.831-0.536-1.354-0.65c-0.524-0.113-1.075-0.156-1.653-0.127
		c-0.578,0.03-1.102,0.069-1.572,0.118L61.907,39.525z"/>
	<path fill="#E2E1D0" d="M89.061,16.961c1.313,0,2.566,0.16,3.757,0.479c1.192,0.319,2.298,0.768,3.314,1.346
		c1.02,0.578,1.942,1.277,2.773,2.096c0.83,0.819,1.537,1.723,2.123,2.71c0.582,0.988,1.033,2.054,1.354,3.198
		c0.318,1.145,0.479,2.331,0.479,3.559c0,1.217-0.159,2.387-0.479,3.514c-0.32,1.126-0.771,2.177-1.354,3.152
		c-0.586,0.976-1.293,1.863-2.123,2.664c-0.831,0.801-1.756,1.484-2.773,2.051c-1.018,0.565-2.122,1.006-3.314,1.318
		c-1.191,0.313-2.445,0.471-3.757,0.471c-1.241,0-2.436-0.156-3.586-0.471c-1.15-0.313-2.222-0.753-3.216-1.318
		c-0.993-0.565-1.896-1.25-2.71-2.051c-0.813-0.801-1.508-1.688-2.086-2.664c-0.578-0.977-1.027-2.023-1.346-3.145
		c-0.319-1.12-0.479-2.294-0.479-3.523s0.16-2.415,0.479-3.559c0.319-1.144,0.768-2.21,1.346-3.198
		c0.578-0.987,1.274-1.891,2.086-2.71c0.813-0.819,1.717-1.518,2.71-2.096c0.994-0.578,2.066-1.027,3.216-1.346
		C86.625,17.121,87.82,16.961,89.061,16.961z M89.061,38.352c1.12,0,2.156-0.199,3.107-0.596c0.951-0.398,1.773-0.931,2.467-1.6
		c0.692-0.668,1.234-1.439,1.627-2.313c0.391-0.874,0.586-1.791,0.586-2.755c0-1.06-0.195-2.032-0.586-2.918
		c-0.393-0.885-0.935-1.644-1.627-2.276c-0.693-0.632-1.516-1.126-2.467-1.481s-1.987-0.533-3.107-0.533
		c-1.024,0-1.984,0.178-2.881,0.533s-1.681,0.85-2.349,1.481c-0.669,0.633-1.196,1.392-1.581,2.276
		c-0.386,0.886-0.578,1.858-0.578,2.918c0,0.964,0.192,1.882,0.578,2.755c0.385,0.873,0.912,1.646,1.581,2.313
		c0.668,0.669,1.451,1.201,2.349,1.6C87.077,38.152,88.037,38.352,89.061,38.352z"/>
	<path fill="#E2E1D0" d="M103.857,17.431h7.985c0,2.734-0.016,5.173-0.045,7.317c-0.03,2.144-0.016,4.032,0.045,5.664
		c0.062,1.632,0.191,3.015,0.396,4.146c0.204,1.131,0.538,2.051,1.004,2.754c0.463,0.705,1.084,1.205,1.858,1.5
		c0.777,0.295,1.773,0.412,2.99,0.353s2.205-0.331,2.963-0.813c0.76-0.48,1.346-1.152,1.762-2.015
		c0.416-0.86,0.695-1.903,0.841-3.125c0.145-1.223,0.223-2.604,0.233-4.146c0.014-1.542-0.012-3.231-0.072-5.067
		c-0.059-1.837-0.09-3.803-0.09-5.899c0.59,0,1.103,0.003,1.535,0.009c0.435,0.006,0.904,0.009,1.41,0.009s0.975,0,1.408,0
		s0.939-0.006,1.518-0.018c0,1.915-0.002,3.598-0.008,5.049c-0.006,1.452-0.018,2.726-0.037,3.821
		c-0.018,1.096-0.039,2.051-0.063,2.863c-0.023,0.813-0.061,1.548-0.109,2.204c-0.047,0.656-0.107,1.259-0.18,1.807
		c-0.072,0.549-0.156,1.111-0.254,1.689c-0.191,1.119-0.604,2.165-1.236,3.135c-0.632,0.971-1.439,1.814-2.422,2.538
		c-0.98,0.724-2.109,1.289-3.387,1.698c-1.278,0.408-2.656,0.613-4.137,0.613c-1.445,0-2.744-0.117-3.896-0.353
		c-1.149-0.233-2.174-0.545-3.069-0.931c-0.898-0.385-1.679-0.832-2.341-1.338s-1.229-1.025-1.698-1.563
		c-0.47-0.535-0.857-1.07-1.164-1.607c-0.308-0.535-0.545-1.033-0.715-1.49c-0.119-0.35-0.229-0.75-0.324-1.201
		c-0.097-0.451-0.183-1.006-0.254-1.662c-0.072-0.656-0.138-1.442-0.197-2.357c-0.062-0.915-0.109-2.011-0.146-3.288
		c-0.036-1.276-0.063-2.761-0.082-4.453C103.867,21.583,103.857,19.635,103.857,17.431z"/>
	<path fill="#E2E1D0" d="M145.049,22.995l0.326,20.09l-6.668,0.253l-0.361-20.126l-7.516,0.361l-0.18-5.474l22.764-0.705l0.18,5.257
		L145.049,22.995z"/>
</g>
<g display="none">
	<path display="inline" fill="#FFFFFF" d="M54.717,17.503l0.777,25.239l-5.998,0.271l-0.217-7.3l-12.321,0.253v7.371h-7.732
		L29.19,18.063h7.732v13.694l12.177-0.325L48.61,17.738L54.717,17.503z"/>
	<path display="inline" fill="#FFFFFF" d="M70.76,16.961c1.313,0,2.565,0.16,3.758,0.479c1.192,0.319,2.297,0.768,3.315,1.346
		s1.942,1.277,2.773,2.096c0.831,0.819,1.539,1.723,2.123,2.71c0.584,0.988,1.036,2.054,1.354,3.198
		c0.319,1.145,0.479,2.331,0.479,3.559c0,1.217-0.16,2.387-0.479,3.514c-0.319,1.126-0.771,2.177-1.354,3.152
		c-0.584,0.976-1.292,1.863-2.123,2.664s-1.755,1.484-2.773,2.051c-1.018,0.565-2.123,1.006-3.315,1.318s-2.445,0.471-3.758,0.471
		c-1.241,0-2.436-0.156-3.586-0.471c-1.15-0.313-2.222-0.753-3.216-1.318c-0.993-0.565-1.896-1.25-2.71-2.051
		c-0.813-0.801-1.508-1.688-2.086-2.664c-0.578-0.977-1.027-2.023-1.346-3.145c-0.319-1.12-0.479-2.294-0.479-3.523
		s0.16-2.415,0.479-3.559s0.768-2.21,1.346-3.198c0.578-0.987,1.274-1.891,2.086-2.71c0.813-0.819,1.717-1.518,2.71-2.096
		c0.994-0.578,2.066-1.027,3.216-1.346C68.324,17.121,69.519,16.961,70.76,16.961z M70.76,38.352c1.12,0,2.156-0.199,3.107-0.596
		c0.951-0.398,1.773-0.931,2.466-1.6c0.692-0.668,1.234-1.439,1.626-2.313c0.391-0.873,0.587-1.791,0.587-2.755
		c0-1.06-0.196-2.032-0.587-2.918c-0.392-0.885-0.934-1.644-1.626-2.276c-0.693-0.632-1.515-1.126-2.466-1.481
		c-0.952-0.355-1.987-0.533-3.107-0.533c-1.024,0-1.984,0.178-2.881,0.533s-1.681,0.85-2.349,1.481
		c-0.669,0.633-1.196,1.392-1.581,2.276c-0.386,0.886-0.578,1.858-0.578,2.918c0,0.964,0.192,1.882,0.578,2.755
		c0.385,0.873,0.912,1.646,1.581,2.313c0.668,0.669,1.451,1.201,2.349,1.6C68.775,38.152,69.736,38.352,70.76,38.352z"/>
	<path display="inline" fill="#FFFFFF" d="M99.684,36.236l7.191-18.065l4.877-0.145l0.416,24.606l-5.816,0.072l-0.072-13.351
		l-5.854,14.127l-2.619-0.289L92.15,30.836l0.396,12.466h-6.576l-0.343-25.835h5.546L99.684,36.236z"/>
	<path display="inline" fill="#FFFFFF" d="M120.676,23.646l0.109,8.527h7.912v3.47h-7.768l0.071,2.817l11.726-0.38l0.145,4.934
		l-18.535,0.324l-0.326-25.871h20.975v6.179H120.676z"/>
</g>
</svg>
